<!--
http://bottlecaps.de/rr/ui

typestring ::= typename
             | typestring "?"
             | typestring "^"
             | "(" typestring ("," typestring)* ")"
             | "[" typestring "]"
             | "{" typestring (| ":" typestring) "}"
-->
<svg xmlns="http://www.w3.org/2000/svg" width="466" height="316">
   <defs>
      <style type="text/css">
         @namespace "http://www.w3.org/2000/svg";
         .line                 {fill: none; stroke: #332900;}
         .bold-line            {stroke: #141000; shape-rendering: crispEdges; stroke-width:
         2; }
         .thin-line            {stroke: #1F1800; shape-rendering: crispEdges}
         .filled               {fill: #332900; stroke: none;}
         text.terminal         {font-family: Verdana, Sans-serif;
         font-size: 12px;
         fill: #141000;
         font-weight: bold;
         }
         text.nonterminal      {font-family: Verdana, Sans-serif;
         font-size: 12px;
         fill: #1A1400;
         }
         text.regexp           {font-family: Verdana, Sans-serif;
         font-size: 12px;
         fill: #1F1800;
         }
         rect, circle, polygon {fill: #332900; stroke: #332900;}
         rect.terminal         {fill: #FFDB4D; stroke: #332900;}
         rect.nonterminal      {fill: #FFEC9E; stroke: #332900;}
         rect.text             {fill: none; stroke: none;}    
         polygon.regexp        {fill: #FFF4C7; stroke: #332900;}
         
      </style>
   </defs>
   <polygon points="9 17 1 13 1 21"/>
   <polygon points="17 17 9 13 9 21"/>
   <a xmlns:xlink="http://www.w3.org/1999/xlink" xlink:href="#typename" xlink:title="typename">
      <rect x="51" y="3" width="82" height="32"/>
      <rect x="49" y="1" width="82" height="32" class="nonterminal"/>
      <text class="nonterminal" x="59" y="21">typename</text>
   </a>
   <a xmlns:xlink="http://www.w3.org/1999/xlink" xlink:href="#typestring" xlink:title="typestring">
      <rect x="51" y="47" width="84" height="32"/>
      <rect x="49" y="45" width="84" height="32" class="nonterminal"/>
      <text class="nonterminal" x="59" y="65">typestring</text>
   </a>
   <rect x="155" y="47" width="26" height="32" rx="10"/>
   <rect x="153" y="45" width="26" height="32" class="terminal" rx="10"/>
   <text class="terminal" x="163" y="65">?</text>
   <a xmlns:xlink="http://www.w3.org/1999/xlink" xlink:href="#typestring" xlink:title="typestring">
      <rect x="51" y="91" width="84" height="32"/>
      <rect x="49" y="89" width="84" height="32" class="nonterminal"/>
      <text class="nonterminal" x="59" y="109">typestring</text>
   </a>
   <rect x="155" y="91" width="30" height="32" rx="10"/>
   <rect x="153" y="89" width="30" height="32" class="terminal" rx="10"/>
   <text class="terminal" x="163" y="109">^</text>
   <rect x="51" y="179" width="26" height="32" rx="10"/>
   <rect x="49" y="177" width="26" height="32" class="terminal" rx="10"/>
   <text class="terminal" x="59" y="197">(</text>
   <a xmlns:xlink="http://www.w3.org/1999/xlink" xlink:href="#typestring" xlink:title="typestring">
      <rect x="117" y="179" width="84" height="32"/>
      <rect x="115" y="177" width="84" height="32" class="nonterminal"/>
      <text class="nonterminal" x="125" y="197">typestring</text>
   </a>
   <rect x="117" y="135" width="24" height="32" rx="10"/>
   <rect x="115" y="133" width="24" height="32" class="terminal" rx="10"/>
   <text class="terminal" x="125" y="153">,</text>
   <rect x="241" y="179" width="26" height="32" rx="10"/>
   <rect x="239" y="177" width="26" height="32" class="terminal" rx="10"/>
   <text class="terminal" x="249" y="197">)</text>
   <rect x="51" y="223" width="26" height="32" rx="10"/>
   <rect x="49" y="221" width="26" height="32" class="terminal" rx="10"/>
   <text class="terminal" x="59" y="241">[</text>
   <a xmlns:xlink="http://www.w3.org/1999/xlink" xlink:href="#typestring" xlink:title="typestring">
      <rect x="97" y="223" width="84" height="32"/>
      <rect x="95" y="221" width="84" height="32" class="nonterminal"/>
      <text class="nonterminal" x="105" y="241">typestring</text>
   </a>
   <rect x="201" y="223" width="26" height="32" rx="10"/>
   <rect x="199" y="221" width="26" height="32" class="terminal" rx="10"/>
   <text class="terminal" x="209" y="241">]</text>
   <rect x="51" y="267" width="28" height="32" rx="10"/>
   <rect x="49" y="265" width="28" height="32" class="terminal" rx="10"/>
   <text class="terminal" x="59" y="285">{</text>
   <a xmlns:xlink="http://www.w3.org/1999/xlink" xlink:href="#typestring" xlink:title="typestring">
      <rect x="99" y="267" width="84" height="32"/>
      <rect x="97" y="265" width="84" height="32" class="nonterminal"/>
      <text class="nonterminal" x="107" y="285">typestring</text>
   </a>
   <rect x="223" y="267" width="24" height="32" rx="10"/>
   <rect x="221" y="265" width="24" height="32" class="terminal" rx="10"/>
   <text class="terminal" x="231" y="285">:</text>
   <a xmlns:xlink="http://www.w3.org/1999/xlink" xlink:href="#typestring" xlink:title="typestring">
      <rect x="267" y="267" width="84" height="32"/>
      <rect x="265" y="265" width="84" height="32" class="nonterminal"/>
      <text class="nonterminal" x="275" y="285">typestring</text>
   </a>
   <rect x="391" y="267" width="28" height="32" rx="10"/>
   <rect x="389" y="265" width="28" height="32" class="terminal" rx="10"/>
   <text class="terminal" x="399" y="285">}</text>
   <svg:path xmlns:svg="http://www.w3.org/2000/svg" class="line" d="m17 17 h2 m20 0 h10 m82 0 h10 m0 0 h286 m-408 0 h20 m388 0 h20 m-428 0 q10 0 10 10 m408 0 q0 -10 10 -10 m-418 10 v24 m408 0 v-24 m-408 24 q0 10 10 10 m388 0 q10 0 10 -10 m-398 10 h10 m84 0 h10 m0 0 h10 m26 0 h10 m0 0 h238 m-398 -10 v20 m408 0 v-20 m-408 20 v24 m408 0 v-24 m-408 24 q0 10 10 10 m388 0 q10 0 10 -10 m-398 10 h10 m84 0 h10 m0 0 h10 m30 0 h10 m0 0 h234 m-398 -10 v20 m408 0 v-20 m-408 20 v68 m408 0 v-68 m-408 68 q0 10 10 10 m388 0 q10 0 10 -10 m-398 10 h10 m26 0 h10 m20 0 h10 m84 0 h10 m-124 0 l20 0 m-1 0 q-9 0 -9 -10 l0 -24 q0 -10 10 -10 m104 44 l20 0 m-20 0 q10 0 10 -10 l0 -24 q0 -10 -10 -10 m-104 0 h10 m24 0 h10 m0 0 h60 m20 44 h10 m26 0 h10 m0 0 h152 m-398 -10 v20 m408 0 v-20 m-408 20 v24 m408 0 v-24 m-408 24 q0 10 10 10 m388 0 q10 0 10 -10 m-398 10 h10 m26 0 h10 m0 0 h10 m84 0 h10 m0 0 h10 m26 0 h10 m0 0 h192 m-398 -10 v20 m408 0 v-20 m-408 20 v24 m408 0 v-24 m-408 24 q0 10 10 10 m388 0 q10 0 10 -10 m-398 10 h10 m28 0 h10 m0 0 h10 m84 0 h10 m20 0 h10 m24 0 h10 m0 0 h10 m84 0 h10 m-168 0 h20 m148 0 h20 m-188 0 q10 0 10 10 m168 0 q0 -10 10 -10 m-178 10 v14 m168 0 v-14 m-168 14 q0 10 10 10 m148 0 q10 0 10 -10 m-158 10 h10 m0 0 h138 m20 -34 h10 m28 0 h10 m23 -264 h-3"/>
   <polygon points="457 17 465 13 465 21"/>
   <polygon points="457 17 449 13 449 21"/>
</svg>
